# xmcd
# Copyright (C) 1995-1998 Ti Kan
#
# Track frame offsets:
#       150
#       16887
#       34125
#       55585
#       72352
#
# Disc length: 1153 seconds
#
# Revision: 0
# Processed by: cddbd v1.4PL0 Copyright (c) Steve Scherf et al.
# Submitted via: CD-Transfer v1.0
#
DISCID=38047f05
DTITLE=Supernova - Want You
DYEAR=2000
DGENRE=
TTITLE0=Want You
TTITLE1=Hit Me
TTITLE2=S. A. Y
TTITLE3=You and Me
TTITLE4=Perfectly Right - Perfectly Wrong
EXTD=
EXTT0=
EXTT1=
EXTT2=
EXTT3=
EXTT4=
PLAYORDER=
